<svg id="Pen" xmlns="http://www.w3.org/2000/svg" width="22.073" height="22.099" viewBox="0 0 22.073 22.099">
  <g id="Path_137" data-name="Path 137" transform="translate(0 16.885) rotate(-45)" fill="none" stroke-linecap="round" stroke-linejoin="round">
    <path d="M5.486.049,20.465,0V7.325L5.486,7.373,0,3.681Z" stroke="none"/>
    <path d="M 18.96502113342285 1.504874229431152 L 5.939940452575684 1.547109127044678 L 2.701704025268555 3.691169261932373 L 5.941699981689453 5.871681690216064 L 18.96502113342285 5.829452514648438 L 18.96502113342285 1.504874229431152 M 20.46502113342285 4.76837158203125e-06 L 20.46502113342285 7.324594497680664 L 5.486151695251465 7.373164653778076 L 1.9073486328125e-06 3.680994749069214 L 5.486151695251465 0.04857492446899414 L 20.46502113342285 4.76837158203125e-06 Z" stroke="none" fill="#08264a"/>
  </g>
  <g id="Rectangle_1557" data-name="Rectangle 1557" transform="translate(13.349 3.536) rotate(-45)" fill="none" stroke="#08264a" stroke-width="1.5">
    <path d="M0,0H3A2,2,0,0,1,5,2V5.338a2,2,0,0,1-2,2H0a0,0,0,0,1,0,0V0A0,0,0,0,1,0,0Z" stroke="none"/>
    <path d="M1.5.75H3A1.25,1.25,0,0,1,4.25,2V5.338A1.25,1.25,0,0,1,3,6.588H1.5a.75.75,0,0,1-.75-.75V1.5A.75.75,0,0,1,1.5.75Z" fill="none"/>
  </g>
  <path id="Path_138" data-name="Path 138" d="M0,0V5.249" transform="translate(5.067 13.076) rotate(-45)" fill="none" stroke="#08264a" stroke-width="1.5"/>
</svg>
