<svg xmlns="http://www.w3.org/2000/svg" width="15.458" height="15.665" viewBox="0 0 15.458 15.665">
  <g id="Save" transform="translate(0.5 0.5)">
    <g id="Group_131" data-name="Group 131" transform="translate(-79.5 -75.5)">
      <path id="Path_36" data-name="Path 36" d="M14.334,2.417,12.075.126a.421.421,0,0,0-.3-.126H10.194V4.153a.427.427,0,0,1-.424.43H2.993a.427.427,0,0,1-.424-.43V0H.424A.427.427,0,0,0,0,.43V14.235a.427.427,0,0,0,.424.43H2.57V8.372h7.624v6.293h3.84a.427.427,0,0,0,.424-.43V2.721A.433.433,0,0,0,14.334,2.417Z" transform="translate(79.5 75.5)" fill="none" stroke="#08264a" stroke-width="1"/>
      <rect id="Rectangle_1578" data-name="Rectangle 1578" width="2.665" height="2.665" transform="translate(84.5 75.5)" fill="none" stroke="#08264a" stroke-width="1"/>
    </g>
    <path id="Path_158" data-name="Path 158" d="M2073.413,90.165h8.487" transform="translate(-2071.226 -75.5)" fill="none" stroke="#08264a" stroke-width="1"/>
    <path id="Path_159" data-name="Path 159" d="M2073.413,90.165h4.69" transform="translate(-2069.379 -79.5)" fill="none" stroke="#08264a" stroke-width="1"/>
    <path id="Path_160" data-name="Path 160" d="M2073.413,90.165h4.69" transform="translate(-2069.379 -77.5)" fill="none" stroke="#08264a" stroke-width="1"/>
  </g>
</svg>
