<svg xmlns="http://www.w3.org/2000/svg" width="14.079" height="15.273" viewBox="0 0 14.079 15.273">
  <g id="Upload-as-image" transform="translate(0.5)">
    <path id="Path_150" data-name="Path 150" d="M2138.228,78.5h-1.752v7.6h13.079V78.5H2147.8" transform="translate(-2136.476 -71.327)" fill="none" stroke="#08264a" stroke-width="1"/>
    <g id="Path_169" data-name="Path 169" transform="translate(4.092 1.978)" fill="none" stroke-linecap="square">
      <path d="M-2.378,2.5,2.535-1.978,7.063,2.5H3.918V9H.773V2.5Z" stroke="none"/>
      <path d="M 2.50656795501709 -0.5995287895202637 L 0.2031574249267578 1.500000953674316 L 0.7734410762786865 1.500000953674316 L 1.773441076278687 1.500000953674316 L 1.773441076278687 2.500000953674316 L 1.773441076278687 8.000000953674316 L 2.917971134185791 8.000000953674316 L 2.917971134185791 2.500000953674316 L 2.917971134185791 1.500000953674316 L 3.917971134185791 1.500000953674316 L 4.629356384277344 1.500000953674316 L 2.50656795501709 -0.5995287895202637 M 2.534671068191528 -1.978219032287598 L 7.062500953674316 2.500000953674316 L 3.917971134185791 2.500000953674316 L 3.917971134185791 9.000000953674316 L 0.7734410762786865 9.000000953674316 L 0.7734410762786865 2.500000953674316 L -2.378418922424316 2.500000953674316 L 2.534671068191528 -1.978219032287598 Z" stroke="none" fill="#08264a"/>
    </g>
  </g>
</svg>
